<mxfile host="65bd71144e">
    <diagram name="Page-1" id="9f46799a-70d6-7492-0946-bef42562c5a5">
        <mxGraphModel dx="1123" dy="847" grid="1" gridSize="10" guides="1" tooltips="1" connect="1" arrows="1" fold="1" page="1" pageScale="1" pageWidth="1100" pageHeight="850" background="none" math="0" shadow="0">
            <root>
                <mxCell id="0"/>
                <mxCell id="1" parent="0"/>
                <mxCell id="Lzp1mvxc0gpNL2V6KAcX-24" style="edgeStyle=orthogonalEdgeStyle;rounded=1;orthogonalLoop=1;jettySize=auto;html=1;entryX=0;entryY=0.5;entryDx=0;entryDy=0;" parent="1" source="78961159f06e98e8-17" target="Lzp1mvxc0gpNL2V6KAcX-20" edge="1">
                    <mxGeometry relative="1" as="geometry"/>
                </mxCell>
                <mxCell id="Lzp1mvxc0gpNL2V6KAcX-27" style="edgeStyle=orthogonalEdgeStyle;rounded=1;orthogonalLoop=1;jettySize=auto;html=1;" parent="1" source="78961159f06e98e8-17" target="Lzp1mvxc0gpNL2V6KAcX-26" edge="1">
                    <mxGeometry relative="1" as="geometry"/>
                </mxCell>
                <mxCell id="78961159f06e98e8-17" value="Adminitrator" style="swimlane;html=1;fontStyle=1;align=center;verticalAlign=top;childLayout=stackLayout;horizontal=1;startSize=26;horizontalStack=0;resizeParent=1;resizeLast=0;collapsible=1;marginBottom=0;swimlaneFillColor=#ffffff;rounded=1;shadow=0;comic=0;labelBackgroundColor=none;strokeWidth=1;fillColor=none;fontFamily=Verdana;fontSize=12;" parent="1" vertex="1">
                    <mxGeometry x="49" y="83" width="160" height="67" as="geometry"/>
                </mxCell>
                <mxCell id="78961159f06e98e8-19" value="" style="line;html=1;strokeWidth=1;fillColor=none;align=left;verticalAlign=middle;spacingTop=-1;spacingLeft=3;spacingRight=3;rotatable=0;labelPosition=right;points=[];portConstraint=eastwest;rounded=1;" parent="78961159f06e98e8-17" vertex="1">
                    <mxGeometry y="26" width="160" height="8" as="geometry"/>
                </mxCell>
                <mxCell id="Lzp1mvxc0gpNL2V6KAcX-28" style="edgeStyle=orthogonalEdgeStyle;rounded=1;orthogonalLoop=1;jettySize=auto;html=1;entryX=0.411;entryY=1;entryDx=0;entryDy=0;entryPerimeter=0;exitX=1;exitY=0.25;exitDx=0;exitDy=0;" parent="1" source="78961159f06e98e8-30" target="Lzp1mvxc0gpNL2V6KAcX-30" edge="1">
                    <mxGeometry relative="1" as="geometry">
                        <mxPoint x="709" y="90" as="targetPoint"/>
                    </mxGeometry>
                </mxCell>
                <mxCell id="Lzp1mvxc0gpNL2V6KAcX-31" style="edgeStyle=orthogonalEdgeStyle;rounded=1;orthogonalLoop=1;jettySize=auto;html=1;entryX=0.25;entryY=0;entryDx=0;entryDy=0;" parent="1" source="78961159f06e98e8-30" target="Lzp1mvxc0gpNL2V6KAcX-32" edge="1">
                    <mxGeometry relative="1" as="geometry">
                        <mxPoint x="689" y="150" as="targetPoint"/>
                        <Array as="points">
                            <mxPoint x="687" y="110"/>
                        </Array>
                    </mxGeometry>
                </mxCell>
                <mxCell id="78961159f06e98e8-30" value="Students" style="swimlane;html=1;fontStyle=1;align=center;verticalAlign=top;childLayout=stackLayout;horizontal=1;startSize=26;horizontalStack=0;resizeParent=1;resizeLast=0;collapsible=1;marginBottom=0;swimlaneFillColor=#ffffff;rounded=1;shadow=0;comic=0;labelBackgroundColor=none;strokeWidth=1;fillColor=none;fontFamily=Verdana;fontSize=12;" parent="1" vertex="1">
                    <mxGeometry x="389" y="83" width="160" height="37" as="geometry"/>
                </mxCell>
                <mxCell id="78961159f06e98e8-38" value="" style="line;html=1;strokeWidth=1;fillColor=none;align=left;verticalAlign=middle;spacingTop=-1;spacingLeft=3;spacingRight=3;rotatable=0;labelPosition=right;points=[];portConstraint=eastwest;rounded=1;" parent="78961159f06e98e8-30" vertex="1">
                    <mxGeometry y="26" width="160" height="8" as="geometry"/>
                </mxCell>
                <mxCell id="Lzp1mvxc0gpNL2V6KAcX-1" value="Staff" style="swimlane;html=1;fontStyle=1;align=center;verticalAlign=top;childLayout=stackLayout;horizontal=1;startSize=26;horizontalStack=0;resizeParent=1;resizeLast=0;collapsible=1;marginBottom=0;swimlaneFillColor=#ffffff;rounded=1;shadow=0;comic=0;labelBackgroundColor=none;strokeWidth=1;fillColor=none;fontFamily=Verdana;fontSize=12;" parent="1" vertex="1">
                    <mxGeometry x="389" y="140" width="170" height="34" as="geometry"/>
                </mxCell>
                <mxCell id="Lzp1mvxc0gpNL2V6KAcX-2" value="" style="line;html=1;strokeWidth=1;fillColor=none;align=left;verticalAlign=middle;spacingTop=-1;spacingLeft=3;spacingRight=3;rotatable=0;labelPosition=right;points=[];portConstraint=eastwest;rounded=1;" parent="Lzp1mvxc0gpNL2V6KAcX-1" vertex="1">
                    <mxGeometry y="26" width="170" height="8" as="geometry"/>
                </mxCell>
                <mxCell id="Lzp1mvxc0gpNL2V6KAcX-4" style="edgeStyle=orthogonalEdgeStyle;rounded=1;orthogonalLoop=1;jettySize=auto;html=1;entryX=0.006;entryY=0.625;entryDx=0;entryDy=0;entryPerimeter=0;" parent="1" target="78961159f06e98e8-38" edge="1">
                    <mxGeometry relative="1" as="geometry">
                        <mxPoint x="209" y="122" as="sourcePoint"/>
                    </mxGeometry>
                </mxCell>
                <mxCell id="Lzp1mvxc0gpNL2V6KAcX-5" value="Resources" style="swimlane;html=1;fontStyle=1;align=center;verticalAlign=top;childLayout=stackLayout;horizontal=1;startSize=26;horizontalStack=0;resizeParent=1;resizeLast=0;collapsible=1;marginBottom=0;swimlaneFillColor=#ffffff;rounded=1;shadow=0;comic=0;labelBackgroundColor=none;strokeWidth=1;fillColor=none;fontFamily=Verdana;fontSize=12;" parent="1" vertex="1">
                    <mxGeometry x="389" y="190" width="170" height="40" as="geometry"/>
                </mxCell>
                <mxCell id="Lzp1mvxc0gpNL2V6KAcX-6" value="" style="line;html=1;strokeWidth=1;fillColor=none;align=left;verticalAlign=middle;spacingTop=-1;spacingLeft=3;spacingRight=3;rotatable=0;labelPosition=right;points=[];portConstraint=eastwest;rounded=1;" parent="Lzp1mvxc0gpNL2V6KAcX-5" vertex="1">
                    <mxGeometry y="26" width="170" height="8" as="geometry"/>
                </mxCell>
                <mxCell id="Lzp1mvxc0gpNL2V6KAcX-9" style="edgeStyle=orthogonalEdgeStyle;rounded=1;orthogonalLoop=1;jettySize=auto;html=1;exitX=1;exitY=0.5;exitDx=0;exitDy=0;" parent="1" source="78961159f06e98e8-17" target="Lzp1mvxc0gpNL2V6KAcX-1" edge="1">
                    <mxGeometry relative="1" as="geometry">
                        <mxPoint x="209" y="174" as="sourcePoint"/>
                    </mxGeometry>
                </mxCell>
                <mxCell id="Lzp1mvxc0gpNL2V6KAcX-10" style="edgeStyle=orthogonalEdgeStyle;rounded=1;orthogonalLoop=1;jettySize=auto;html=1;entryX=0;entryY=0.5;entryDx=0;entryDy=0;exitX=1;exitY=0.5;exitDx=0;exitDy=0;" parent="1" source="78961159f06e98e8-17" target="Lzp1mvxc0gpNL2V6KAcX-5" edge="1">
                    <mxGeometry relative="1" as="geometry">
                        <mxPoint x="209" y="226" as="sourcePoint"/>
                    </mxGeometry>
                </mxCell>
                <mxCell id="Lzp1mvxc0gpNL2V6KAcX-20" value="Courses" style="swimlane;html=1;fontStyle=1;align=center;verticalAlign=top;childLayout=stackLayout;horizontal=1;startSize=26;horizontalStack=0;resizeParent=1;resizeLast=0;collapsible=1;marginBottom=0;swimlaneFillColor=#ffffff;rounded=1;shadow=0;comic=0;labelBackgroundColor=none;strokeWidth=1;fillColor=none;fontFamily=Verdana;fontSize=12;" parent="1" vertex="1">
                    <mxGeometry x="389" y="240" width="175" height="34" as="geometry"/>
                </mxCell>
                <mxCell id="Lzp1mvxc0gpNL2V6KAcX-21" value="" style="line;html=1;strokeWidth=1;fillColor=none;align=left;verticalAlign=middle;spacingTop=-1;spacingLeft=3;spacingRight=3;rotatable=0;labelPosition=right;points=[];portConstraint=eastwest;rounded=1;" parent="Lzp1mvxc0gpNL2V6KAcX-20" vertex="1">
                    <mxGeometry y="26" width="175" height="8" as="geometry"/>
                </mxCell>
                <mxCell id="Lzp1mvxc0gpNL2V6KAcX-25" value="Attendance" style="swimlane;html=1;fontStyle=1;align=center;verticalAlign=top;childLayout=stackLayout;horizontal=1;startSize=26;horizontalStack=0;resizeParent=1;resizeLast=0;collapsible=1;marginBottom=0;swimlaneFillColor=#ffffff;rounded=1;shadow=0;comic=0;labelBackgroundColor=none;strokeWidth=1;fillColor=none;fontFamily=Verdana;fontSize=12;" parent="1" vertex="1">
                    <mxGeometry x="389" y="20" width="160" height="37" as="geometry"/>
                </mxCell>
                <mxCell id="Lzp1mvxc0gpNL2V6KAcX-26" value="" style="line;html=1;strokeWidth=1;fillColor=none;align=left;verticalAlign=middle;spacingTop=-1;spacingLeft=3;spacingRight=3;rotatable=0;labelPosition=right;points=[];portConstraint=eastwest;rounded=1;" parent="Lzp1mvxc0gpNL2V6KAcX-25" vertex="1">
                    <mxGeometry y="26" width="160" height="8" as="geometry"/>
                </mxCell>
                <mxCell id="Lzp1mvxc0gpNL2V6KAcX-29" value="STUDENT/:ID RECORDS" style="swimlane;html=1;fontStyle=1;align=center;verticalAlign=top;childLayout=stackLayout;horizontal=1;startSize=26;horizontalStack=0;resizeParent=1;resizeLast=0;collapsible=1;marginBottom=0;swimlaneFillColor=#ffffff;rounded=1;shadow=0;comic=0;labelBackgroundColor=none;strokeWidth=1;fillColor=none;fontFamily=Verdana;fontSize=12;" parent="1" vertex="1">
                    <mxGeometry x="629" y="30" width="190" height="37" as="geometry"/>
                </mxCell>
                <mxCell id="Lzp1mvxc0gpNL2V6KAcX-30" value="" style="line;html=1;strokeWidth=1;fillColor=none;align=left;verticalAlign=middle;spacingTop=-1;spacingLeft=3;spacingRight=3;rotatable=0;labelPosition=right;points=[];portConstraint=eastwest;rounded=1;" parent="Lzp1mvxc0gpNL2V6KAcX-29" vertex="1">
                    <mxGeometry y="26" width="190" height="8" as="geometry"/>
                </mxCell>
                <mxCell id="Lzp1mvxc0gpNL2V6KAcX-32" value="COURSE :ID&amp;nbsp;&lt;div&gt;&lt;br&gt;&lt;/div&gt;" style="swimlane;html=1;fontStyle=1;align=center;verticalAlign=top;childLayout=stackLayout;horizontal=1;startSize=26;horizontalStack=0;resizeParent=1;resizeLast=0;collapsible=1;marginBottom=0;swimlaneFillColor=#ffffff;rounded=1;shadow=0;comic=0;labelBackgroundColor=none;strokeWidth=1;fillColor=none;fontFamily=Verdana;fontSize=12;" parent="1" vertex="1">
                    <mxGeometry x="669" y="80" width="190" height="37" as="geometry"/>
                </mxCell>
                <mxCell id="Lzp1mvxc0gpNL2V6KAcX-33" value="" style="line;html=1;strokeWidth=1;fillColor=none;align=left;verticalAlign=middle;spacingTop=-1;spacingLeft=3;spacingRight=3;rotatable=0;labelPosition=right;points=[];portConstraint=eastwest;rounded=1;" parent="Lzp1mvxc0gpNL2V6KAcX-32" vertex="1">
                    <mxGeometry y="26" width="190" height="8" as="geometry"/>
                </mxCell>
            </root>
        </mxGraphModel>
    </diagram>
</mxfile>